<svg id="Layer_2" data-name="Layer 2" xmlns="http://www.w3.org/2000/svg" viewBox="0 0 2188.04 1696.12">
  <title>church</title>
  <g id="fill_floor" data-name="fill floor">
    <path d="M1474,245.12H1249v47.42L498.56,32.61,30.66,1383.52l863,298.92L1313.59,470.12H1474v297h688v-522H1474Zm-339.7,711.42L989,1367l-162.59-57.59L970.56,902.32,461.44,720.89,316.78,1129.32l-162.59-57.59L299,663l-2.76-1L441.61,253.93l835.93,297.88-144.11,404.4Z" fill="#b3b3b3"/>
    <polygon points="990.01 1366.07 989.95 1366.23 975.41 1361.08 948.93 1352.01 949.03 1351.71 827.36 1308.55 971.56 901.36 462.44 719.91 317.78 1128.33 166.3 1074.67 140.31 1065.78 30.87 1382.52 894.3 1682.19 1002.54 1370.36 990.01 1366.07" fill="#b3b3b3" stroke="#000" stroke-miterlimit="10" stroke-width="25"/>
  </g>
  <path id="outline_floor" data-name="outline floor" d="M903.73,1698L17.09,1390.6,492.93,16.13,1238,274.36V232.12h938v547H1463v-297H1324.91ZM48.89,1375.29L888.3,1666.17,1307.11,457.12H1488v297h663v-497H1263V283l-0.52,21.09H1238v-3.3L508.37,48Z"/>
</svg>
