<svg id="Layer_1" data-name="Layer 1" xmlns="http://www.w3.org/2000/svg" viewBox="0 0 2188.04 1696.12">
  <title>church</title>
  <polygon points="1316.02 469.29 896.01 1681.91 32.98 1382.99 500.88 32.07 1251.45 292.04 1251.45 244.38 1476.37 244.38 2164.79 244.38 2164.79 766.56 1476.37 766.56 1476.37 469.29 1316.02 469.29" fill="#b3b3b3"/>
  <path id="outline_floor" data-name="outline floor" d="M904.22,1697.45L17.57,1390.07,493.41,15.6l745.11,258.23V231.58h938v547h-713v-297H1325.39ZM49.37,1374.75l839.41,290.89L1307.6,456.58h180.93v297h663v-497h-888v25.91L1263,303.58h-24.48v-3.3L508.86,47.46Z"/>
  <rect id="filipus" x="603.9" y="1456.23" width="296.33" height="134.96" transform="translate(555.1 -164.04) rotate(19.61)"/>
  <rect id="jakobus" x="96.61" y="1275.46" width="296.33" height="134.96" transform="translate(464.99 -4.24) rotate(19.61)"/>
</svg>
